<mxfile host="app.diagrams.net" agent="Mozilla/5.0 (Windows NT 10.0; Win64; x64) AppleWebKit/537.36 (KHTML, like Gecko) Chrome/135.0.0.0 Safari/537.36" version="26.0.12">
  <diagram name="Stránka-1" id="pq7LEjHFt11b8RmFfDGI">
    <mxGraphModel dx="1434" dy="900" grid="1" gridSize="10" guides="1" tooltips="1" connect="1" arrows="1" fold="1" page="1" pageScale="1" pageWidth="827" pageHeight="1169" math="0" shadow="0">
      <root>
        <mxCell id="0" />
        <mxCell id="1" parent="0" />
        <mxCell id="CWI6uMccu7SKy6ce78x4-1" value="LibraryController" style="swimlane;fontStyle=0;childLayout=stackLayout;horizontal=1;startSize=30;horizontalStack=0;resizeParent=1;resizeParentMax=0;resizeLast=0;collapsible=1;marginBottom=0;whiteSpace=wrap;html=1;" vertex="1" parent="1">
          <mxGeometry x="300" y="490" width="280" height="120" as="geometry" />
        </mxCell>
        <mxCell id="CWI6uMccu7SKy6ce78x4-2" value="ParseExpression" style="text;strokeColor=none;fillColor=none;align=left;verticalAlign=middle;spacingLeft=4;spacingRight=4;overflow=hidden;points=[[0,0.5],[1,0.5]];portConstraint=eastwest;rotatable=0;whiteSpace=wrap;html=1;" vertex="1" parent="CWI6uMccu7SKy6ce78x4-1">
          <mxGeometry y="30" width="280" height="30" as="geometry" />
        </mxCell>
        <mxCell id="CWI6uMccu7SKy6ce78x4-3" value="podívání se do cache jestli už nebyla funkce někdy vypočítáná" style="text;strokeColor=none;fillColor=none;align=left;verticalAlign=middle;spacingLeft=4;spacingRight=4;overflow=hidden;points=[[0,0.5],[1,0.5]];portConstraint=eastwest;rotatable=0;whiteSpace=wrap;html=1;" vertex="1" parent="CWI6uMccu7SKy6ce78x4-1">
          <mxGeometry y="60" width="280" height="30" as="geometry" />
        </mxCell>
        <mxCell id="CWI6uMccu7SKy6ce78x4-4" value="vytvoření grafu" style="text;strokeColor=none;fillColor=none;align=left;verticalAlign=middle;spacingLeft=4;spacingRight=4;overflow=hidden;points=[[0,0.5],[1,0.5]];portConstraint=eastwest;rotatable=0;whiteSpace=wrap;html=1;" vertex="1" parent="CWI6uMccu7SKy6ce78x4-1">
          <mxGeometry y="90" width="280" height="30" as="geometry" />
        </mxCell>
        <mxCell id="CWI6uMccu7SKy6ce78x4-5" value="App" style="swimlane;fontStyle=0;childLayout=stackLayout;horizontal=1;startSize=30;horizontalStack=0;resizeParent=1;resizeParentMax=0;resizeLast=0;collapsible=1;marginBottom=0;whiteSpace=wrap;html=1;" vertex="1" parent="1">
          <mxGeometry x="470" y="300" width="140" height="60" as="geometry" />
        </mxCell>
        <mxCell id="CWI6uMccu7SKy6ce78x4-6" value="input" style="text;strokeColor=none;fillColor=none;align=left;verticalAlign=middle;spacingLeft=4;spacingRight=4;overflow=hidden;points=[[0,0.5],[1,0.5]];portConstraint=eastwest;rotatable=0;whiteSpace=wrap;html=1;" vertex="1" parent="CWI6uMccu7SKy6ce78x4-5">
          <mxGeometry y="30" width="140" height="30" as="geometry" />
        </mxCell>
        <mxCell id="CWI6uMccu7SKy6ce78x4-9" value="LocalStorage" style="swimlane;fontStyle=0;childLayout=stackLayout;horizontal=1;startSize=30;horizontalStack=0;resizeParent=1;resizeParentMax=0;resizeLast=0;collapsible=1;marginBottom=0;whiteSpace=wrap;html=1;" vertex="1" parent="1">
          <mxGeometry x="170" y="320" width="140" height="120" as="geometry" />
        </mxCell>
        <mxCell id="CWI6uMccu7SKy6ce78x4-10" value="Item 1" style="text;strokeColor=none;fillColor=none;align=left;verticalAlign=middle;spacingLeft=4;spacingRight=4;overflow=hidden;points=[[0,0.5],[1,0.5]];portConstraint=eastwest;rotatable=0;whiteSpace=wrap;html=1;" vertex="1" parent="CWI6uMccu7SKy6ce78x4-9">
          <mxGeometry y="30" width="140" height="30" as="geometry" />
        </mxCell>
        <mxCell id="CWI6uMccu7SKy6ce78x4-11" value="Item 2" style="text;strokeColor=none;fillColor=none;align=left;verticalAlign=middle;spacingLeft=4;spacingRight=4;overflow=hidden;points=[[0,0.5],[1,0.5]];portConstraint=eastwest;rotatable=0;whiteSpace=wrap;html=1;" vertex="1" parent="CWI6uMccu7SKy6ce78x4-9">
          <mxGeometry y="60" width="140" height="30" as="geometry" />
        </mxCell>
        <mxCell id="CWI6uMccu7SKy6ce78x4-12" value="Item 3" style="text;strokeColor=none;fillColor=none;align=left;verticalAlign=middle;spacingLeft=4;spacingRight=4;overflow=hidden;points=[[0,0.5],[1,0.5]];portConstraint=eastwest;rotatable=0;whiteSpace=wrap;html=1;" vertex="1" parent="CWI6uMccu7SKy6ce78x4-9">
          <mxGeometry y="90" width="140" height="30" as="geometry" />
        </mxCell>
        <mxCell id="CWI6uMccu7SKy6ce78x4-13" value="General" style="swimlane;fontStyle=0;childLayout=stackLayout;horizontal=1;startSize=30;horizontalStack=0;resizeParent=1;resizeParentMax=0;resizeLast=0;collapsible=1;marginBottom=0;whiteSpace=wrap;html=1;" vertex="1" parent="1">
          <mxGeometry x="320" y="690" width="140" height="120" as="geometry" />
        </mxCell>
        <mxCell id="CWI6uMccu7SKy6ce78x4-14" value="vypočítat y u n bodů" style="text;strokeColor=none;fillColor=none;align=left;verticalAlign=middle;spacingLeft=4;spacingRight=4;overflow=hidden;points=[[0,0.5],[1,0.5]];portConstraint=eastwest;rotatable=0;whiteSpace=wrap;html=1;" vertex="1" parent="CWI6uMccu7SKy6ce78x4-13">
          <mxGeometry y="30" width="140" height="30" as="geometry" />
        </mxCell>
        <mxCell id="CWI6uMccu7SKy6ce78x4-15" value="merge/paths, detekovat asymptoty" style="text;strokeColor=none;fillColor=none;align=left;verticalAlign=middle;spacingLeft=4;spacingRight=4;overflow=hidden;points=[[0,0.5],[1,0.5]];portConstraint=eastwest;rotatable=0;whiteSpace=wrap;html=1;" vertex="1" parent="CWI6uMccu7SKy6ce78x4-13">
          <mxGeometry y="60" width="140" height="30" as="geometry" />
        </mxCell>
        <mxCell id="CWI6uMccu7SKy6ce78x4-16" value="CacheResults" style="text;strokeColor=none;fillColor=none;align=left;verticalAlign=middle;spacingLeft=4;spacingRight=4;overflow=hidden;points=[[0,0.5],[1,0.5]];portConstraint=eastwest;rotatable=0;whiteSpace=wrap;html=1;" vertex="1" parent="CWI6uMccu7SKy6ce78x4-13">
          <mxGeometry y="90" width="140" height="30" as="geometry" />
        </mxCell>
        <mxCell id="CWI6uMccu7SKy6ce78x4-17" value="evaluator" style="swimlane;fontStyle=0;childLayout=stackLayout;horizontal=1;startSize=30;horizontalStack=0;resizeParent=1;resizeParentMax=0;resizeLast=0;collapsible=1;marginBottom=0;whiteSpace=wrap;html=1;" vertex="1" parent="1">
          <mxGeometry x="600" y="710" width="140" height="60" as="geometry" />
        </mxCell>
        <mxCell id="CWI6uMccu7SKy6ce78x4-18" value="vypočítat výraz" style="text;strokeColor=none;fillColor=none;align=left;verticalAlign=middle;spacingLeft=4;spacingRight=4;overflow=hidden;points=[[0,0.5],[1,0.5]];portConstraint=eastwest;rotatable=0;whiteSpace=wrap;html=1;" vertex="1" parent="CWI6uMccu7SKy6ce78x4-17">
          <mxGeometry y="30" width="140" height="30" as="geometry" />
        </mxCell>
        <mxCell id="CWI6uMccu7SKy6ce78x4-21" value="functionData" style="swimlane;fontStyle=0;childLayout=stackLayout;horizontal=1;startSize=30;horizontalStack=0;resizeParent=1;resizeParentMax=0;resizeLast=0;collapsible=1;marginBottom=0;whiteSpace=wrap;html=1;" vertex="1" parent="1">
          <mxGeometry x="120" y="50" width="140" height="150" as="geometry" />
        </mxCell>
        <mxCell id="CWI6uMccu7SKy6ce78x4-22" value="id - number" style="text;strokeColor=none;fillColor=none;align=left;verticalAlign=middle;spacingLeft=4;spacingRight=4;overflow=hidden;points=[[0,0.5],[1,0.5]];portConstraint=eastwest;rotatable=0;whiteSpace=wrap;html=1;" vertex="1" parent="CWI6uMccu7SKy6ce78x4-21">
          <mxGeometry y="30" width="140" height="30" as="geometry" />
        </mxCell>
        <mxCell id="CWI6uMccu7SKy6ce78x4-23" value="expression - string[]" style="text;strokeColor=none;fillColor=none;align=left;verticalAlign=middle;spacingLeft=4;spacingRight=4;overflow=hidden;points=[[0,0.5],[1,0.5]];portConstraint=eastwest;rotatable=0;whiteSpace=wrap;html=1;" vertex="1" parent="CWI6uMccu7SKy6ce78x4-21">
          <mxGeometry y="60" width="140" height="30" as="geometry" />
        </mxCell>
        <mxCell id="CWI6uMccu7SKy6ce78x4-24" value="pathArray? - coords[][]" style="text;strokeColor=none;fillColor=none;align=left;verticalAlign=middle;spacingLeft=4;spacingRight=4;overflow=hidden;points=[[0,0.5],[1,0.5]];portConstraint=eastwest;rotatable=0;whiteSpace=wrap;html=1;" vertex="1" parent="CWI6uMccu7SKy6ce78x4-21">
          <mxGeometry y="90" width="140" height="30" as="geometry" />
        </mxCell>
        <mxCell id="CWI6uMccu7SKy6ce78x4-51" value="color? - string" style="text;strokeColor=none;fillColor=none;align=left;verticalAlign=middle;spacingLeft=4;spacingRight=4;overflow=hidden;points=[[0,0.5],[1,0.5]];portConstraint=eastwest;rotatable=0;whiteSpace=wrap;html=1;" vertex="1" parent="CWI6uMccu7SKy6ce78x4-21">
          <mxGeometry y="120" width="140" height="30" as="geometry" />
        </mxCell>
        <mxCell id="CWI6uMccu7SKy6ce78x4-25" value="coords" style="swimlane;fontStyle=0;childLayout=stackLayout;horizontal=1;startSize=30;horizontalStack=0;resizeParent=1;resizeParentMax=0;resizeLast=0;collapsible=1;marginBottom=0;whiteSpace=wrap;html=1;" vertex="1" parent="1">
          <mxGeometry x="290" y="50" width="140" height="90" as="geometry" />
        </mxCell>
        <mxCell id="CWI6uMccu7SKy6ce78x4-26" value="x - number" style="text;strokeColor=none;fillColor=none;align=left;verticalAlign=middle;spacingLeft=4;spacingRight=4;overflow=hidden;points=[[0,0.5],[1,0.5]];portConstraint=eastwest;rotatable=0;whiteSpace=wrap;html=1;" vertex="1" parent="CWI6uMccu7SKy6ce78x4-25">
          <mxGeometry y="30" width="140" height="30" as="geometry" />
        </mxCell>
        <mxCell id="CWI6uMccu7SKy6ce78x4-27" value="x - number" style="text;strokeColor=none;fillColor=none;align=left;verticalAlign=middle;spacingLeft=4;spacingRight=4;overflow=hidden;points=[[0,0.5],[1,0.5]];portConstraint=eastwest;rotatable=0;whiteSpace=wrap;html=1;" vertex="1" parent="CWI6uMccu7SKy6ce78x4-25">
          <mxGeometry y="60" width="140" height="30" as="geometry" />
        </mxCell>
        <mxCell id="CWI6uMccu7SKy6ce78x4-29" value="viewBox" style="swimlane;fontStyle=0;childLayout=stackLayout;horizontal=1;startSize=30;horizontalStack=0;resizeParent=1;resizeParentMax=0;resizeLast=0;collapsible=1;marginBottom=0;whiteSpace=wrap;html=1;" vertex="1" parent="1">
          <mxGeometry x="460" y="50" width="140" height="150" as="geometry" />
        </mxCell>
        <mxCell id="CWI6uMccu7SKy6ce78x4-30" value="x - number" style="text;strokeColor=none;fillColor=none;align=left;verticalAlign=middle;spacingLeft=4;spacingRight=4;overflow=hidden;points=[[0,0.5],[1,0.5]];portConstraint=eastwest;rotatable=0;whiteSpace=wrap;html=1;" vertex="1" parent="CWI6uMccu7SKy6ce78x4-29">
          <mxGeometry y="30" width="140" height="30" as="geometry" />
        </mxCell>
        <mxCell id="CWI6uMccu7SKy6ce78x4-31" value="y - number" style="text;strokeColor=none;fillColor=none;align=left;verticalAlign=middle;spacingLeft=4;spacingRight=4;overflow=hidden;points=[[0,0.5],[1,0.5]];portConstraint=eastwest;rotatable=0;whiteSpace=wrap;html=1;" vertex="1" parent="CWI6uMccu7SKy6ce78x4-29">
          <mxGeometry y="60" width="140" height="30" as="geometry" />
        </mxCell>
        <mxCell id="CWI6uMccu7SKy6ce78x4-32" value="width - number" style="text;strokeColor=none;fillColor=none;align=left;verticalAlign=middle;spacingLeft=4;spacingRight=4;overflow=hidden;points=[[0,0.5],[1,0.5]];portConstraint=eastwest;rotatable=0;whiteSpace=wrap;html=1;" vertex="1" parent="CWI6uMccu7SKy6ce78x4-29">
          <mxGeometry y="90" width="140" height="30" as="geometry" />
        </mxCell>
        <mxCell id="CWI6uMccu7SKy6ce78x4-37" value="height - number" style="text;strokeColor=none;fillColor=none;align=left;verticalAlign=middle;spacingLeft=4;spacingRight=4;overflow=hidden;points=[[0,0.5],[1,0.5]];portConstraint=eastwest;rotatable=0;whiteSpace=wrap;html=1;" vertex="1" parent="CWI6uMccu7SKy6ce78x4-29">
          <mxGeometry y="120" width="140" height="30" as="geometry" />
        </mxCell>
        <mxCell id="CWI6uMccu7SKy6ce78x4-33" value="LibraryInput" style="swimlane;fontStyle=0;childLayout=stackLayout;horizontal=1;startSize=30;horizontalStack=0;resizeParent=1;resizeParentMax=0;resizeLast=0;collapsible=1;marginBottom=0;whiteSpace=wrap;html=1;" vertex="1" parent="1">
          <mxGeometry x="610" y="50" width="140" height="90" as="geometry" />
        </mxCell>
        <mxCell id="CWI6uMccu7SKy6ce78x4-34" value="expression - string" style="text;strokeColor=none;fillColor=none;align=left;verticalAlign=middle;spacingLeft=4;spacingRight=4;overflow=hidden;points=[[0,0.5],[1,0.5]];portConstraint=eastwest;rotatable=0;whiteSpace=wrap;html=1;" vertex="1" parent="CWI6uMccu7SKy6ce78x4-33">
          <mxGeometry y="30" width="140" height="30" as="geometry" />
        </mxCell>
        <mxCell id="CWI6uMccu7SKy6ce78x4-35" value="color - string" style="text;strokeColor=none;fillColor=none;align=left;verticalAlign=middle;spacingLeft=4;spacingRight=4;overflow=hidden;points=[[0,0.5],[1,0.5]];portConstraint=eastwest;rotatable=0;whiteSpace=wrap;html=1;" vertex="1" parent="CWI6uMccu7SKy6ce78x4-33">
          <mxGeometry y="60" width="140" height="30" as="geometry" />
        </mxCell>
        <mxCell id="CWI6uMccu7SKy6ce78x4-38" value="" style="endArrow=classic;html=1;rounded=0;entryX=0.193;entryY=1.067;entryDx=0;entryDy=0;entryPerimeter=0;" edge="1" parent="1" target="CWI6uMccu7SKy6ce78x4-6">
          <mxGeometry width="50" height="50" relative="1" as="geometry">
            <mxPoint x="390" y="490" as="sourcePoint" />
            <mxPoint x="440" y="440" as="targetPoint" />
          </mxGeometry>
        </mxCell>
        <mxCell id="CWI6uMccu7SKy6ce78x4-39" value="" style="endArrow=classic;html=1;rounded=0;entryX=0.836;entryY=-0.008;entryDx=0;entryDy=0;entryPerimeter=0;exitX=0.5;exitY=1.167;exitDx=0;exitDy=0;exitPerimeter=0;" edge="1" parent="1" source="CWI6uMccu7SKy6ce78x4-6" target="CWI6uMccu7SKy6ce78x4-1">
          <mxGeometry width="50" height="50" relative="1" as="geometry">
            <mxPoint x="520" y="370" as="sourcePoint" />
            <mxPoint x="537" y="360" as="targetPoint" />
          </mxGeometry>
        </mxCell>
        <mxCell id="CWI6uMccu7SKy6ce78x4-40" value="" style="endArrow=classic;html=1;rounded=0;entryX=0.693;entryY=0;entryDx=0;entryDy=0;entryPerimeter=0;exitX=0.686;exitY=1.033;exitDx=0;exitDy=0;exitPerimeter=0;" edge="1" parent="1" source="CWI6uMccu7SKy6ce78x4-4" target="CWI6uMccu7SKy6ce78x4-13">
          <mxGeometry width="50" height="50" relative="1" as="geometry">
            <mxPoint x="510" y="588" as="sourcePoint" />
            <mxPoint x="632" y="460" as="targetPoint" />
          </mxGeometry>
        </mxCell>
        <mxCell id="CWI6uMccu7SKy6ce78x4-41" value="" style="endArrow=classic;html=1;rounded=0;entryX=0;entryY=0.5;entryDx=0;entryDy=0;exitX=1.036;exitY=0.1;exitDx=0;exitDy=0;exitPerimeter=0;" edge="1" parent="1" source="CWI6uMccu7SKy6ce78x4-15" target="CWI6uMccu7SKy6ce78x4-18">
          <mxGeometry width="50" height="50" relative="1" as="geometry">
            <mxPoint x="500" y="750" as="sourcePoint" />
            <mxPoint x="580" y="755" as="targetPoint" />
          </mxGeometry>
        </mxCell>
        <mxCell id="CWI6uMccu7SKy6ce78x4-42" value="" style="endArrow=classic;html=1;rounded=0;entryX=0.679;entryY=1.1;entryDx=0;entryDy=0;exitX=0;exitY=0;exitDx=0;exitDy=0;entryPerimeter=0;" edge="1" parent="1" source="CWI6uMccu7SKy6ce78x4-1" target="CWI6uMccu7SKy6ce78x4-12">
          <mxGeometry width="50" height="50" relative="1" as="geometry">
            <mxPoint x="170" y="540" as="sourcePoint" />
            <mxPoint x="285" y="542" as="targetPoint" />
          </mxGeometry>
        </mxCell>
        <mxCell id="CWI6uMccu7SKy6ce78x4-43" value="" style="endArrow=classic;html=1;rounded=0;entryX=0.293;entryY=1.067;entryDx=0;entryDy=0;exitX=0.25;exitY=0;exitDx=0;exitDy=0;entryPerimeter=0;" edge="1" parent="1" source="CWI6uMccu7SKy6ce78x4-13" target="CWI6uMccu7SKy6ce78x4-4">
          <mxGeometry width="50" height="50" relative="1" as="geometry">
            <mxPoint x="320" y="667" as="sourcePoint" />
            <mxPoint x="265" y="620" as="targetPoint" />
          </mxGeometry>
        </mxCell>
        <mxCell id="CWI6uMccu7SKy6ce78x4-44" value="" style="endArrow=classic;html=1;rounded=0;entryX=0;entryY=0;entryDx=0;entryDy=0;exitX=0.421;exitY=1.133;exitDx=0;exitDy=0;entryPerimeter=0;exitPerimeter=0;" edge="1" parent="1" source="CWI6uMccu7SKy6ce78x4-12" target="CWI6uMccu7SKy6ce78x4-2">
          <mxGeometry width="50" height="50" relative="1" as="geometry">
            <mxPoint x="365" y="700" as="sourcePoint" />
            <mxPoint x="371" y="622" as="targetPoint" />
          </mxGeometry>
        </mxCell>
        <mxCell id="CWI6uMccu7SKy6ce78x4-45" value="" style="endArrow=classic;html=1;rounded=0;entryX=1.029;entryY=0.067;entryDx=0;entryDy=0;entryPerimeter=0;" edge="1" parent="1" target="CWI6uMccu7SKy6ce78x4-14">
          <mxGeometry width="50" height="50" relative="1" as="geometry">
            <mxPoint x="600" y="722" as="sourcePoint" />
            <mxPoint x="330" y="530" as="targetPoint" />
          </mxGeometry>
        </mxCell>
        <mxCell id="CWI6uMccu7SKy6ce78x4-47" value="TYPES:" style="text;strokeColor=none;fillColor=none;align=left;verticalAlign=middle;spacingLeft=4;spacingRight=4;overflow=hidden;points=[[0,0.5],[1,0.5]];portConstraint=eastwest;rotatable=0;whiteSpace=wrap;html=1;" vertex="1" parent="1">
          <mxGeometry x="80" y="10" width="80" height="30" as="geometry" />
        </mxCell>
        <mxCell id="CWI6uMccu7SKy6ce78x4-48" value="LibaryInput[]" style="text;strokeColor=none;fillColor=none;align=left;verticalAlign=middle;spacingLeft=4;spacingRight=4;overflow=hidden;points=[[0,0.5],[1,0.5]];portConstraint=eastwest;rotatable=0;whiteSpace=wrap;html=1;" vertex="1" parent="1">
          <mxGeometry x="540" y="410" width="80" height="30" as="geometry" />
        </mxCell>
        <mxCell id="CWI6uMccu7SKy6ce78x4-49" value="graph" style="text;strokeColor=none;fillColor=none;align=left;verticalAlign=middle;spacingLeft=4;spacingRight=4;overflow=hidden;points=[[0,0.5],[1,0.5]];portConstraint=eastwest;rotatable=0;whiteSpace=wrap;html=1;" vertex="1" parent="1">
          <mxGeometry x="360" y="390" width="80" height="30" as="geometry" />
        </mxCell>
        <mxCell id="CWI6uMccu7SKy6ce78x4-50" value="expression, viewbox, color?&lt;br&gt;pathArray?" style="text;strokeColor=none;fillColor=none;align=left;verticalAlign=middle;spacingLeft=4;spacingRight=4;overflow=hidden;points=[[0,0.5],[1,0.5]];portConstraint=eastwest;rotatable=0;whiteSpace=wrap;html=1;" vertex="1" parent="1">
          <mxGeometry x="480" y="620" width="80" height="60" as="geometry" />
        </mxCell>
        <mxCell id="CWI6uMccu7SKy6ce78x4-52" value="path" style="text;strokeColor=none;fillColor=none;align=left;verticalAlign=middle;spacingLeft=4;spacingRight=4;overflow=hidden;points=[[0,0.5],[1,0.5]];portConstraint=eastwest;rotatable=0;whiteSpace=wrap;html=1;" vertex="1" parent="1">
          <mxGeometry x="300" y="640" width="40" height="30" as="geometry" />
        </mxCell>
        <mxCell id="CWI6uMccu7SKy6ce78x4-53" value="expression, x" style="text;strokeColor=none;fillColor=none;align=left;verticalAlign=middle;spacingLeft=4;spacingRight=4;overflow=hidden;points=[[0,0.5],[1,0.5]];portConstraint=eastwest;rotatable=0;whiteSpace=wrap;html=1;" vertex="1" parent="1">
          <mxGeometry x="470" y="770" width="80" height="40" as="geometry" />
        </mxCell>
        <mxCell id="CWI6uMccu7SKy6ce78x4-54" value="y" style="text;strokeColor=none;fillColor=none;align=left;verticalAlign=middle;spacingLeft=4;spacingRight=4;overflow=hidden;points=[[0,0.5],[1,0.5]];portConstraint=eastwest;rotatable=0;whiteSpace=wrap;html=1;" vertex="1" parent="1">
          <mxGeometry x="510" y="690" width="80" height="40" as="geometry" />
        </mxCell>
        <mxCell id="CWI6uMccu7SKy6ce78x4-55" value="" style="endArrow=classic;html=1;rounded=0;entryX=0.071;entryY=1.1;entryDx=0;entryDy=0;entryPerimeter=0;exitX=-0.021;exitY=0.267;exitDx=0;exitDy=0;exitPerimeter=0;" edge="1" parent="1" source="CWI6uMccu7SKy6ce78x4-15" target="CWI6uMccu7SKy6ce78x4-12">
          <mxGeometry width="50" height="50" relative="1" as="geometry">
            <mxPoint x="180" y="810" as="sourcePoint" />
            <mxPoint x="230" y="760" as="targetPoint" />
            <Array as="points">
              <mxPoint x="180" y="760" />
            </Array>
          </mxGeometry>
        </mxCell>
        <mxCell id="CWI6uMccu7SKy6ce78x4-56" value="PathArray" style="text;strokeColor=none;fillColor=none;align=left;verticalAlign=middle;spacingLeft=4;spacingRight=4;overflow=hidden;points=[[0,0.5],[1,0.5]];portConstraint=eastwest;rotatable=0;whiteSpace=wrap;html=1;" vertex="1" parent="1">
          <mxGeometry x="190" y="570" width="80" height="30" as="geometry" />
        </mxCell>
        <mxCell id="CWI6uMccu7SKy6ce78x4-57" value="id" style="text;strokeColor=none;fillColor=none;align=left;verticalAlign=middle;spacingLeft=4;spacingRight=4;overflow=hidden;points=[[0,0.5],[1,0.5]];portConstraint=eastwest;rotatable=0;whiteSpace=wrap;html=1;" vertex="1" parent="1">
          <mxGeometry x="220" y="490" width="80" height="30" as="geometry" />
        </mxCell>
        <mxCell id="CWI6uMccu7SKy6ce78x4-58" value="functionData" style="text;strokeColor=none;fillColor=none;align=left;verticalAlign=middle;spacingLeft=4;spacingRight=4;overflow=hidden;points=[[0,0.5],[1,0.5]];portConstraint=eastwest;rotatable=0;whiteSpace=wrap;html=1;" vertex="1" parent="1">
          <mxGeometry x="310" y="450" width="80" height="30" as="geometry" />
        </mxCell>
      </root>
    </mxGraphModel>
  </diagram>
</mxfile>
